<svg width="353" height="181" viewBox="0 0 353 181" fill="none" xmlns="http://www.w3.org/2000/svg">
<g clip-path="url(#clip0_12_69)">
<path d="M176.5 161.782C273.978 161.782 353 159.588 353 156.882C353 154.176 273.978 151.983 176.5 151.983C79.0217 151.983 0 154.176 0 156.882C0 159.588 79.0217 161.782 176.5 161.782Z" fill="#E6E6E6"/>
<path d="M270.562 103.794C270.339 103.798 270.116 103.801 269.89 103.801C269.665 103.801 269.442 103.798 269.219 103.794C257.404 103.528 248.84 96.2022 251.02 88.516L256.335 69.7656L257.679 65.0212L281.492 65.4241L282.939 70.0655L288.636 88.3342C291.047 96.0628 282.484 103.528 270.562 103.794Z" fill="#3F3D56"/>
<path opacity="0.2" d="M282.939 70.0655C278.878 72.3687 274.272 73.5552 269.596 73.5025C264.919 73.4498 260.342 72.1598 256.335 69.7656L257.679 65.0212L281.492 65.4241L282.939 70.0655Z" fill="black"/>
<path d="M281.934 89.1382C282.962 85.3336 286.343 79.8453 295.825 73.2281C312.361 61.6859 302.496 53.0315 302.069 52.6688C301.172 51.9082 301.305 51.0542 302.377 50.7624C303 50.6388 303.642 50.6488 304.261 50.7917C304.879 50.9346 305.46 51.2071 305.964 51.5909C306.499 52.0304 318.851 62.4983 300.192 75.5208C283.399 87.2424 286.969 94.8939 287.01 94.9673C287.46 95.7857 286.739 96.4404 285.397 96.4316C284.056 96.4228 282.602 95.7529 282.151 94.9354C282.056 94.7624 280.975 92.68 281.934 89.1382Z" fill="#3F3D56"/>
<path d="M258.9 106.527C258.539 106.527 258.182 106.457 257.848 106.32C257.515 106.183 257.212 105.982 256.957 105.729C256.702 105.475 256.499 105.175 256.361 104.844C256.223 104.513 256.152 104.159 256.152 103.801V91.9849C256.152 91.2618 256.442 90.5682 256.957 90.0569C257.472 89.5455 258.171 89.2583 258.9 89.2583C259.628 89.2583 260.327 89.5455 260.843 90.0569C261.358 90.5682 261.647 91.2618 261.647 91.9849V103.801C261.647 104.159 261.576 104.513 261.438 104.844C261.3 105.175 261.098 105.475 260.843 105.729C260.588 105.982 260.285 106.183 259.951 106.32C259.618 106.457 259.261 106.527 258.9 106.527Z" fill="#3F3D56"/>
<path d="M261.309 78.4765C261.158 78.8018 260.944 79.0944 260.679 79.3376C260.415 79.5809 260.104 79.77 259.766 79.8942C259.427 80.0184 259.067 80.0752 258.707 80.0614C258.346 80.0477 257.992 79.9635 257.664 79.8138L246.848 74.8753C246.186 74.5725 245.673 74.0217 245.421 73.3437C245.169 72.6658 245.198 71.9162 245.503 71.2597C245.807 70.6032 246.362 70.0935 247.044 69.8425C247.727 69.5915 248.483 69.6198 249.145 69.9211L259.961 74.8597C260.289 75.0094 260.584 75.2216 260.829 75.4844C261.074 75.7471 261.265 76.0552 261.39 76.3911C261.515 76.7269 261.572 77.0839 261.558 77.4418C261.544 77.7996 261.46 78.1512 261.309 78.4765Z" fill="#3F3D56"/>
<path d="M278.472 78.4765C278.623 78.8018 278.837 79.0944 279.101 79.3377C279.366 79.5809 279.677 79.7701 280.015 79.8942C280.353 80.0184 280.713 80.0753 281.074 80.0615C281.434 80.0477 281.789 79.9635 282.116 79.8139L292.933 74.8753C293.595 74.573 294.109 74.0222 294.362 73.3439C294.614 72.6656 294.585 71.9155 294.281 71.2585C293.976 70.6016 293.421 70.0916 292.738 69.8408C292.054 69.59 291.298 69.6189 290.636 69.9211L279.82 74.8597C279.492 75.0094 279.197 75.2216 278.952 75.4844C278.707 75.7472 278.516 76.0552 278.391 76.3911C278.266 76.7269 278.208 77.084 278.222 77.4418C278.236 77.7996 278.321 78.1512 278.472 78.4765Z" fill="#3F3D56"/>
<path d="M280.881 106.527C281.242 106.527 281.599 106.457 281.932 106.32C282.266 106.183 282.569 105.982 282.824 105.729C283.079 105.475 283.281 105.175 283.419 104.844C283.558 104.513 283.629 104.159 283.629 103.801V91.9849C283.629 91.2618 283.339 90.5682 282.824 90.0569C282.309 89.5455 281.61 89.2583 280.881 89.2583C280.152 89.2583 279.453 89.5455 278.938 90.0569C278.423 90.5682 278.133 91.2618 278.133 91.9849V103.801C278.133 104.159 278.204 104.513 278.342 104.844C278.481 105.175 278.683 105.475 278.938 105.729C279.193 105.982 279.496 106.183 279.829 106.32C280.163 106.457 280.52 106.527 280.881 106.527Z" fill="#3F3D56"/>
<path d="M292.364 30.0333C292.601 29.7365 292.773 29.3931 292.867 29.0258C292.961 28.6585 292.975 28.2756 292.909 27.9023L291.414 19.1722L289.918 10.4422C289.838 9.9708 289.633 9.52883 289.326 9.16068C289.018 8.79253 288.619 8.51117 288.167 8.34488C287.715 8.17859 287.227 8.13323 286.752 8.21336C286.277 8.29348 285.832 8.49627 285.461 8.80135L278.59 14.4516L274.451 17.8556C271.69 17.3685 268.868 17.3262 266.094 17.7306L262.107 14.4516L255.236 8.80135C254.865 8.49627 254.419 8.29349 253.944 8.21336C253.469 8.13324 252.981 8.1786 252.53 8.34489C252.078 8.51118 251.678 8.79254 251.371 9.16068C251.063 9.52883 250.859 9.9708 250.778 10.4422L249.283 19.1722L247.788 27.9023C247.708 28.3611 247.749 28.8327 247.907 29.271C245.344 33.1698 243.881 37.6787 243.67 42.3289C243.458 46.9791 244.506 51.6006 246.704 55.7127C248.903 59.8248 252.171 63.2772 256.17 65.7109C260.168 68.1446 264.751 69.4706 269.441 69.551C274.131 69.6315 278.757 68.4633 282.838 66.1682C286.919 63.873 290.305 60.5347 292.646 56.5004C294.986 52.4662 296.194 47.8833 296.144 43.2287C296.095 38.574 294.789 34.0176 292.364 30.0333Z" fill="#3F3D56"/>
<path d="M254.547 12.3788C254.384 12.379 254.223 12.4082 254.07 12.4648C253.845 12.5458 253.647 12.6848 253.494 12.8672C253.342 13.0497 253.241 13.2692 253.203 13.5031L251.389 24.09C251.349 24.3233 251.372 24.563 251.455 24.785C251.538 25.0069 251.678 25.2033 251.862 25.3543C252.046 25.5053 252.266 25.6057 252.501 25.6454C252.736 25.685 252.978 25.6626 253.202 25.5802L263.347 21.8453C263.571 21.7629 263.769 21.6236 263.921 21.4414C264.073 21.2592 264.174 21.0404 264.214 20.807C264.254 20.5737 264.232 20.334 264.149 20.1121C264.066 19.8902 263.925 19.6939 263.742 19.5429L255.409 12.6908C255.168 12.4898 254.863 12.3794 254.547 12.3788Z" fill="#E6E6E6"/>
<path d="M286.15 12.3788C285.834 12.3794 285.529 12.4898 285.287 12.6908L276.955 19.5429C276.771 19.6939 276.631 19.8902 276.548 20.1121C276.465 20.334 276.443 20.5737 276.482 20.807C276.522 21.0404 276.624 21.2592 276.776 21.4414C276.928 21.6236 277.126 21.7629 277.349 21.8453L287.495 25.5802C287.719 25.6626 287.96 25.685 288.195 25.6454C288.431 25.6057 288.651 25.5053 288.835 25.3543C289.019 25.2033 289.159 25.0069 289.242 24.785C289.325 24.563 289.347 24.3233 289.308 24.09L287.494 13.5031C287.455 13.2692 287.355 13.0497 287.202 12.8672C287.05 12.6848 286.851 12.5458 286.627 12.4648C286.474 12.4082 286.313 12.379 286.15 12.3788Z" fill="#E6E6E6"/>
<path d="M269.89 50.7819C271.914 50.7819 273.554 49.1542 273.554 47.1463C273.554 45.1384 271.914 43.5107 269.89 43.5107C267.867 43.5107 266.227 45.1384 266.227 47.1463C266.227 49.1542 267.867 50.7819 269.89 50.7819Z" fill="#E6E6E6"/>
<path d="M269.89 46.2374C271.239 46.2374 272.333 45.8305 272.333 45.3285C272.333 44.8265 271.239 44.4196 269.89 44.4196C268.541 44.4196 267.448 44.8265 267.448 45.3285C267.448 45.8305 268.541 46.2374 269.89 46.2374Z" fill="#3F3D56"/>
<path d="M268.059 49.2671H271.417V53.3571C271.417 53.5759 271.373 53.7926 271.289 53.9947C271.205 54.1969 271.081 54.3806 270.925 54.5353C270.769 54.6901 270.584 54.8128 270.38 54.8965C270.177 54.9803 269.958 55.0234 269.738 55.0234C269.292 55.0234 268.865 54.8478 268.55 54.5353C268.235 54.2228 268.059 53.799 268.059 53.3571L268.059 49.2671Z" fill="#FF6584"/>
<path d="M270.094 8.02972C269.918 8.39212 269.747 8.75844 269.586 9.13224C267.692 13.5172 267.053 18.3359 267.74 23.0581C268.084 22.5631 268.445 22.0475 268.812 21.5262C268.025 16.9942 268.468 12.336 270.094 8.02972Z" fill="#3F3D56"/>
<path d="M272.842 11.3623C272.666 11.7247 272.495 12.091 272.334 12.4649C270.439 16.8499 269.8 21.6686 270.487 26.3907C270.831 25.8958 271.192 25.3802 271.56 24.8589C270.773 20.3268 271.215 15.6686 272.842 11.3623Z" fill="#3F3D56"/>
<path d="M281.313 76.7881L280.926 71.9031L280.539 67.0181C280.518 66.7544 280.428 66.5007 280.277 66.2827C280.126 66.0646 279.919 65.8899 279.679 65.7759C279.438 65.662 279.172 65.613 278.906 65.6337C278.64 65.6545 278.384 65.7443 278.165 65.8941L274.095 68.6692L271.123 70.6957C270.934 70.4751 270.698 70.2979 270.432 70.1764C270.167 70.0549 269.878 69.992 269.585 69.992C269.293 69.992 269.004 70.0549 268.738 70.1764C268.473 70.2979 268.237 70.4751 268.047 70.6957L265.075 68.6692L261.006 65.8941C260.786 65.7442 260.53 65.6544 260.264 65.6337C259.999 65.613 259.732 65.662 259.491 65.7759C259.251 65.8898 259.045 66.0646 258.894 66.2827C258.743 66.5007 258.652 66.7544 258.631 67.0181L258.244 71.9031L257.857 76.788C257.836 77.0518 257.886 77.3164 258 77.5552C258.115 77.7939 258.291 77.9985 258.511 78.1484C258.731 78.2982 258.986 78.388 259.252 78.4088C259.518 78.4295 259.785 78.3804 260.025 78.2665L264.482 76.1567L268.144 74.4231C268.332 74.6126 268.556 74.763 268.804 74.8657C269.051 74.9684 269.317 75.0212 269.585 75.0212C269.853 75.0212 270.119 74.9684 270.366 74.8657C270.614 74.763 270.838 74.6126 271.027 74.4231L274.688 76.1567L279.145 78.2665C279.386 78.3804 279.652 78.4295 279.918 78.4088C280.184 78.388 280.439 78.2982 280.659 78.1484C280.879 77.9986 281.055 77.794 281.17 77.5552C281.285 77.3164 281.334 77.0518 281.313 76.7881Z" fill="#0FD042"/>
<path d="M265.006 44.1167C265.511 44.1167 265.922 43.7097 265.922 43.2078C265.922 42.7058 265.511 42.2989 265.006 42.2989C264.5 42.2989 264.09 42.7058 264.09 43.2078C264.09 43.7097 264.5 44.1167 265.006 44.1167Z" fill="#E6E6E6"/>
<path d="M274.775 44.1167C275.281 44.1167 275.691 43.7097 275.691 43.2078C275.691 42.7058 275.281 42.2989 274.775 42.2989C274.269 42.2989 273.859 42.7058 273.859 43.2078C273.859 43.7097 274.269 44.1167 274.775 44.1167Z" fill="#E6E6E6"/>
<path d="M92.6796 95.7648C92.9025 95.7678 93.1253 95.7708 93.3512 95.7708C93.5772 95.7708 93.8 95.7678 94.0229 95.7648C105.838 95.4982 114.401 88.1725 112.222 80.4863L106.906 61.7359L105.563 56.9915L81.75 57.3944L80.3029 62.0358L74.6061 80.3045C72.1943 88.0331 80.7578 95.4982 92.6796 95.7648Z" fill="#3F3D56"/>
<path opacity="0.2" d="M80.3029 62.0358C84.3632 64.339 88.9692 65.5255 93.6457 65.4728C98.3222 65.42 102.9 64.13 106.906 61.7359L105.563 56.9915L81.75 57.3944L80.3029 62.0358Z" fill="black"/>
<path d="M78.4156 78.8861C75.8454 75.8842 70.4231 72.3594 59.0002 70.4047C39.0776 66.9943 44.2616 54.9834 44.4916 54.4742C44.9741 53.406 44.4862 52.6903 43.3913 52.8818C42.775 53.0347 42.1988 53.3164 41.7013 53.7083C41.2038 54.1001 40.7964 54.593 40.5065 55.1538C40.2121 55.7784 33.5615 70.4847 56.0416 74.3314C76.2737 77.7948 76.3459 86.2266 76.3405 86.3104C76.2867 87.2411 77.2212 87.5265 78.43 86.9488C79.6388 86.3712 80.6634 85.1486 80.7189 84.218C80.7301 84.0214 80.8089 81.6804 78.4156 78.8861Z" fill="#3F3D56"/>
<path d="M104.342 98.4975C104.703 98.4975 105.06 98.427 105.393 98.2899C105.727 98.1529 106.03 97.9521 106.285 97.6989C106.54 97.4457 106.742 97.1451 106.88 96.8143C107.018 96.4834 107.09 96.1289 107.09 95.7708V83.9552C107.089 83.2326 106.799 82.5399 106.284 82.0293C105.768 81.5186 105.07 81.2318 104.342 81.2318C103.614 81.2318 102.915 81.5186 102.4 82.0293C101.885 82.5399 101.595 83.2326 101.594 83.9552V95.7708C101.594 96.1289 101.665 96.4834 101.803 96.8143C101.941 97.1451 102.144 97.4457 102.399 97.6989C102.654 97.9521 102.957 98.1529 103.29 98.2899C103.624 98.427 103.981 98.4975 104.342 98.4975Z" fill="#3F3D56"/>
<path d="M101.933 70.4467C102.084 70.772 102.297 71.0647 102.562 71.3079C102.827 71.5512 103.137 71.7403 103.476 71.8645C103.814 71.9887 104.174 72.0455 104.535 72.0317C104.895 72.0179 105.25 71.9338 105.577 71.7841L116.394 66.8456C116.722 66.6961 117.017 66.484 117.263 66.2212C117.508 65.9585 117.699 65.6503 117.825 65.3143C117.95 64.9783 118.008 64.6211 117.994 64.263C117.98 63.905 117.895 63.5531 117.744 63.2276C117.593 62.9021 117.379 62.6093 117.114 62.3659C116.849 62.1226 116.538 61.9334 116.2 61.8093C115.861 61.6852 115.501 61.6286 115.14 61.6427C114.779 61.6568 114.425 61.7413 114.097 61.8914L103.28 66.83C102.953 66.9796 102.658 67.1919 102.413 67.4547C102.167 67.7174 101.977 68.0255 101.852 68.3614C101.727 68.6972 101.669 69.0542 101.683 69.412C101.697 69.7699 101.782 70.1214 101.933 70.4467Z" fill="#3F3D56"/>
<path d="M84.7697 70.4467C84.6189 70.772 84.405 71.0647 84.1402 71.3079C83.8754 71.5512 83.565 71.7403 83.2265 71.8645C82.8881 71.9887 82.5283 72.0455 82.1678 72.0317C81.8072 72.0179 81.4529 71.9338 81.1251 71.7841L70.3085 66.8456C69.9803 66.6961 69.6851 66.484 69.4395 66.2212C69.194 65.9585 69.0031 65.6503 68.8777 65.3143C68.7523 64.9783 68.6949 64.6211 68.7087 64.263C68.7225 63.905 68.8073 63.5531 68.9582 63.2276C69.1091 62.9021 69.3232 62.6093 69.5882 62.3659C69.8532 62.1226 70.164 61.9334 70.5027 61.8093C70.8414 61.6852 71.2015 61.6286 71.5623 61.6427C71.9231 61.6568 72.2775 61.7413 72.6054 61.8914L83.422 66.83C83.7498 66.9796 84.0447 67.1919 84.2898 67.4547C84.535 67.7174 84.7256 68.0255 84.8507 68.3614C84.9758 68.6972 85.0331 69.0542 85.0192 69.412C85.0053 69.7699 84.9205 70.1214 84.7697 70.4467Z" fill="#3F3D56"/>
<path d="M82.3606 98.4975C81.9998 98.4975 81.6425 98.427 81.3091 98.2899C80.9758 98.1529 80.6729 97.9521 80.4177 97.6989C80.1626 97.4457 79.9602 97.1451 79.8221 96.8143C79.684 96.4834 79.613 96.1289 79.613 95.7708V83.9552C79.6139 83.2326 79.9037 82.5399 80.4189 82.0293C80.9341 81.5186 81.6325 81.2318 82.3606 81.2318C83.0888 81.2318 83.7872 81.5186 84.3024 82.0293C84.8175 82.5399 85.1074 83.2326 85.1083 83.9552V95.7708C85.1083 96.1289 85.0372 96.4834 84.8991 96.8143C84.7611 97.1451 84.5587 97.4457 84.3035 97.6989C84.0484 97.9521 83.7455 98.1529 83.4121 98.2899C83.0788 98.427 82.7215 98.4975 82.3606 98.4975Z" fill="#3F3D56"/>
<path d="M115.334 21.2413C115.493 20.8029 115.534 20.3314 115.454 19.8726L113.959 11.1425L112.463 2.41242C112.382 1.94106 112.178 1.49909 111.871 1.13094C111.563 0.762792 111.164 0.481437 110.712 0.315146C110.26 0.148855 109.772 0.103488 109.297 0.183613C108.822 0.263739 108.377 0.466532 108.006 0.771604L101.135 6.42182L97.1476 9.70082C94.3734 9.29648 91.5517 9.33871 88.791 9.82586L84.6515 6.4218L77.7806 0.771592C77.4096 0.466519 76.9642 0.263727 76.4892 0.183601C76.0142 0.103476 75.5264 0.148837 75.0746 0.315128C74.6229 0.481419 74.2232 0.76278 73.9158 1.13093C73.6084 1.49908 73.4041 1.94105 73.3233 2.41241L71.8279 11.1425L70.3325 19.8726C70.2665 20.2458 70.281 20.6287 70.375 20.9961C70.469 21.3634 70.6403 21.7067 70.8778 22.0035C68.4492 25.9887 67.1412 30.547 67.09 35.204C67.0388 39.8611 68.2462 44.4466 70.5866 48.4835C72.927 52.5203 76.3149 55.861 80.3976 58.1578C84.4803 60.4546 89.1087 61.6236 93.8012 61.5431C98.4936 61.4626 103.079 60.1357 107.079 57.7003C111.079 55.2649 114.349 51.8101 116.547 47.6954C118.746 43.5807 119.793 38.9565 119.579 34.304C119.366 29.6516 117.9 25.1408 115.334 21.2413Z" fill="#3F3D56"/>
<path d="M107.832 4.66108L99.5 11.5128C99.3164 11.6639 99.1759 11.8605 99.093 12.0824C99.01 12.3043 98.9874 12.544 99.0274 12.7773C99.0674 13.0106 99.1685 13.2294 99.3207 13.4117C99.4729 13.5939 99.6707 13.7332 99.8943 13.8155L110.04 17.5505C110.264 17.6328 110.505 17.6553 110.74 17.6157C110.976 17.576 111.196 17.4756 111.38 17.3246C111.563 17.1735 111.704 16.9772 111.787 16.7552C111.87 16.5333 111.892 16.2936 111.852 16.0602L110.039 5.47337C110 5.23947 109.9 5.02 109.747 4.83752C109.595 4.65504 109.396 4.51612 109.172 4.43504C109.019 4.37843 108.857 4.34932 108.695 4.34909C108.379 4.34968 108.074 4.46009 107.832 4.66108Z" fill="#E6E6E6"/>
<path d="M76.6148 4.43504C76.3904 4.51612 76.1918 4.65503 76.0393 4.83751C75.8869 5.02 75.7862 5.23947 75.7476 5.47337L73.9341 16.0602C73.8942 16.2936 73.9168 16.5333 73.9998 16.7552C74.0827 16.9772 74.2231 17.1735 74.4068 17.3246C74.5905 17.4756 74.811 17.576 75.0462 17.6157C75.2813 17.6553 75.5229 17.6328 75.7465 17.5505L85.8922 13.8155C86.1158 13.7332 86.3137 13.5939 86.4658 13.4117C86.618 13.2294 86.7192 13.0106 86.7592 12.7773C86.7991 12.544 86.7765 12.3043 86.6936 12.0824C86.6106 11.8605 86.4703 11.6642 86.2867 11.5131L77.9544 4.66108C77.7126 4.46008 77.4074 4.34967 77.092 4.34909C76.9291 4.34932 76.7675 4.37843 76.6148 4.43504Z" fill="#E6E6E6"/>
<path d="M93.3512 42.7522C95.3745 42.7522 97.0148 41.1245 97.0148 39.1166C97.0148 37.1087 95.3745 35.481 93.3512 35.481C91.3279 35.481 89.6877 37.1087 89.6877 39.1166C89.6877 41.1245 91.3279 42.7522 93.3512 42.7522Z" fill="#E6E6E6"/>
<path d="M93.3512 38.2077C94.7001 38.2077 95.7936 37.8007 95.7936 37.2988C95.7936 36.7968 94.7001 36.3899 93.3512 36.3899C92.0024 36.3899 90.9089 36.7968 90.9089 37.2988C90.9089 37.8007 92.0024 38.2077 93.3512 38.2077Z" fill="#3F3D56"/>
<path d="M93.5039 46.9937C93.2834 46.9937 93.0651 46.9505 92.8614 46.8668C92.6576 46.7831 92.4725 46.6603 92.3166 46.5056C92.1607 46.3509 92.037 46.1672 91.9526 45.965C91.8682 45.7628 91.8248 45.5462 91.8248 45.3273V41.2373H95.183V45.3273C95.183 45.5462 95.1396 45.7628 95.0552 45.965C94.9709 46.1672 94.8472 46.3509 94.6912 46.5056C94.5353 46.6603 94.3502 46.7831 94.1465 46.8668C93.9428 46.9505 93.7244 46.9937 93.5039 46.9937Z" fill="#FF6584"/>
<path d="M93.1474 0C93.3235 0.362394 93.4945 0.728708 93.6553 1.10251C95.55 5.48751 96.1889 10.3062 95.5018 15.0283C95.1581 14.5334 94.7969 14.0178 94.4294 13.4965C95.2164 8.96448 94.7739 4.30627 93.1474 0Z" fill="#3F3D56"/>
<path d="M90.3998 3.33261C90.5759 3.69501 90.7469 4.06132 90.9077 4.43512C92.8023 8.82012 93.4413 13.6388 92.7542 18.3609C92.4105 17.866 92.0493 17.3504 91.6818 16.8291C92.4687 12.2971 92.0263 7.63888 90.3998 3.33261Z" fill="#3F3D56"/>
<path d="M81.9285 15.7396L82.3156 10.8547L82.7026 5.96972C82.7235 5.70597 82.814 5.45231 82.965 5.23426C83.116 5.01621 83.3222 4.84144 83.5628 4.72753C83.8035 4.61361 84.07 4.56456 84.3358 4.5853C84.6016 4.60604 84.8572 4.69584 85.077 4.84569L89.1465 7.62082L92.1182 9.64732C92.3081 9.42664 92.544 9.24944 92.8096 9.12795C93.0751 9.00645 93.3641 8.94354 93.6565 8.94354C93.949 8.94354 94.2379 9.00645 94.5035 9.12795C94.7691 9.24944 95.005 9.42664 95.1949 9.64732L98.1666 7.62082L102.236 4.84569C102.456 4.69584 102.711 4.60604 102.977 4.5853C103.243 4.56456 103.51 4.61361 103.75 4.72753C103.991 4.84144 104.197 5.01621 104.348 5.23426C104.499 5.45231 104.59 5.70597 104.61 5.96972L104.997 10.8547L105.385 15.7396C105.405 16.0034 105.356 16.268 105.241 16.5068C105.126 16.7455 104.95 16.9501 104.731 17.1C104.511 17.2498 104.255 17.3396 103.99 17.3604C103.724 17.3811 103.457 17.332 103.216 17.2181L98.7599 15.1083L95.0981 13.3747C94.9097 13.5642 94.6852 13.7146 94.4378 13.8173C94.1903 13.92 93.9247 13.9728 93.6565 13.9728C93.3883 13.9728 93.1227 13.92 92.8753 13.8173C92.6278 13.7146 92.4034 13.5642 92.2149 13.3747L88.5532 15.1083L84.0966 17.2181C83.856 17.3321 83.5894 17.3811 83.3236 17.3604C83.0578 17.3396 82.8022 17.2498 82.5824 17.1C82.3627 16.9502 82.1866 16.7455 82.0718 16.5068C81.957 16.268 81.9076 16.0034 81.9285 15.7396Z" fill="#0FD042"/>
<path d="M97.3201 35.1781C97.3201 35.68 97.7301 35.1781 98.236 35.1781C98.7418 35.1781 99.1518 35.68 99.1518 35.1781C99.1513 34.9373 99.0546 34.7066 98.8829 34.5366C98.7112 34.3665 98.4785 34.2711 98.236 34.2711C97.9934 34.2711 97.7607 34.3665 97.589 34.5366C97.4173 34.7066 97.3206 34.9373 97.3201 35.1781Z" fill="#E6E6E6"/>
<path d="M89.3824 35.1781C89.3824 35.68 88.9724 35.1781 88.4665 35.1781C87.9607 35.1781 87.5507 35.68 87.5507 35.1781C87.5512 34.9373 87.6479 34.7066 87.8196 34.5366C87.9913 34.3665 88.224 34.2711 88.4666 34.2711C88.7091 34.2711 88.9418 34.3665 89.1135 34.5366C89.2852 34.7066 89.3819 34.9373 89.3824 35.1781Z" fill="#E6E6E6"/>
<path d="M190.997 103.802V98.0249H161.888V98.3862V103.802V150.382V156.159H167.71H190.997V150.382H167.71V103.802H190.997Z" fill="#3F3D56"/>
<path d="M205.187 98.025V156.159H234.296V98.025H205.187ZM228.474 150.382H211.009V103.802H228.474V150.382Z" fill="#0FD042"/>
<path d="M124.411 150.382V98.3862H118.589V150.382V156.159H124.411H147.698V150.382H124.411Z" fill="#0FD042"/>
<path d="M105.49 103.802V98.0249H76.3813V98.3862V103.802V124.023V129.8V150.382V156.159H82.2031H105.49V150.382H82.2031V129.8H105.49V124.023H82.2031V103.802H105.49Z" fill="#3F3D56"/>
<path d="M333.266 103.802V98.0249H304.157V98.3862V103.802V124.023V129.8V150.382V156.159H309.979H333.266V150.382H309.979V129.8H333.266V124.023H309.979V103.802H333.266Z" fill="#0FD042"/>
<path d="M56.7329 98.3862V146.134L41.3829 130.902L41.3479 130.937L41.3154 130.905L25.6231 146.477V98.2057H19.8013V155.979H25.6231V154.647L41.3507 139.04L56.7329 154.305V156.159H62.5547V98.3862H56.7329Z" fill="#3F3D56"/>
<path d="M284.873 98.3862V99.7172L269.145 115.325L253.762 100.06V98.2057H247.941V155.979H253.762V108.23L269.112 123.463L269.148 123.428L269.18 123.46L284.873 107.887V156.159H290.694V98.3862H284.873Z" fill="#3F3D56"/>
<path d="M133.039 62.7971C135.012 62.7971 136.612 61.2094 136.612 59.251C136.612 57.2925 135.012 55.7049 133.039 55.7049C131.065 55.7049 129.466 57.2925 129.466 59.251C129.466 61.2094 131.065 62.7971 133.039 62.7971Z" fill="#0FD042"/>
<path d="M44.8957 102.198C46.8692 102.198 48.4691 100.61 48.4691 98.652C48.4691 96.6935 46.8692 95.1059 44.8957 95.1059C42.9222 95.1059 41.3223 96.6935 41.3223 98.652C41.3223 100.61 42.9222 102.198 44.8957 102.198Z" fill="#0FD042"/>
<path d="M115.569 181C117.543 181 119.142 179.412 119.142 177.454C119.142 175.495 117.543 173.908 115.569 173.908C113.596 173.908 111.996 175.495 111.996 177.454C111.996 179.412 113.596 181 115.569 181Z" fill="#0FD042"/>
<path d="M205.301 73.4353C207.274 73.4353 208.874 71.8477 208.874 69.8893C208.874 67.9308 207.274 66.3432 205.301 66.3432C203.327 66.3432 201.727 67.9308 201.727 69.8893C201.727 71.8477 203.327 73.4353 205.301 73.4353Z" fill="#0FD042"/>
<path d="M310.517 177.848C312.49 177.848 314.09 176.26 314.09 174.302C314.09 172.343 312.49 170.756 310.517 170.756C308.543 170.756 306.943 172.343 306.943 174.302C306.943 176.26 308.543 177.848 310.517 177.848Z" fill="#0FD042"/>
<path d="M314.09 84.8616C316.063 84.8616 317.663 83.274 317.663 81.3156C317.663 79.3571 316.063 77.7695 314.09 77.7695C312.116 77.7695 310.517 79.3571 310.517 81.3156C310.517 83.274 312.116 84.8616 314.09 84.8616Z" fill="#0FD042"/>
<path d="M268.827 148.691C270.801 148.691 272.401 147.104 272.401 145.145C272.401 143.187 270.801 141.599 268.827 141.599C266.854 141.599 265.254 143.187 265.254 145.145C265.254 147.104 266.854 148.691 268.827 148.691Z" fill="#0FD042"/>
</g>
<defs>
<clipPath id="clip0_12_69">
<rect width="353" height="181" fill="white"/>
</clipPath>
</defs>
</svg>
